<?xml version="1.0" encoding="utf-8"?>
<svg xmlns="http://www.w3.org/2000/svg" viewBox="0 0 64 64" width="512" height="512">
  <linearGradient id="mDG22KgpLu8B3E9PFVUZIa" x1="32" x2="32" y1="5.5" y2="58.793" gradientUnits="userSpaceOnUse" spreadMethod="reflect">
    <stop offset="0" stop-color="#1a6dff" />
    <stop offset="1" stop-color="#c822ff" />
  </linearGradient>
  <path fill="url(#mDG22KgpLu8B3E9PFVUZIa)" d="M57.145,27.219c-0.89-0.888-2.211-1.073-3.29-0.574l-16.5-16.5 c0.499-1.079,0.314-2.399-0.574-3.289c-1.137-1.138-2.989-1.14-4.13,0L17.717,21.789c-1.139,1.139-1.139,2.991-0.001,4.13 c0.552,0.552,1.285,0.855,2.065,0.855c0.432,0,0.846-0.102,1.227-0.279l4.147,4.147l-0.65,0.65 c-0.552,0.552-0.855,1.285-0.855,2.064c0,0.432,0.102,0.846,0.279,1.227L6.855,51.657c-1.139,1.139-1.139,2.991,0,4.13l1.357,1.357 c0.569,0.569,1.317,0.854,2.064,0.854c0.748,0,1.496-0.285,2.065-0.854l17.074-17.075c0.389,0.18,0.805,0.28,1.226,0.28 c0.747,0,1.495-0.285,2.064-0.854l0.65-0.65l4.147,4.147c-0.177,0.381-0.279,0.794-0.279,1.227c0,0.78,0.304,1.514,0.855,2.064 c0.569,0.569,1.317,0.854,2.065,0.854c0.747,0,1.495-0.285,2.064-0.854l14.934-14.934C58.283,30.211,58.283,28.358,57.145,27.219z M19.131,23.203L34.064,8.269C34.244,8.09,34.479,8,34.716,8c0.235,0,0.471,0.09,0.649,0.27c0.359,0.358,0.359,0.942,0.001,1.301 L20.432,24.505c-0.349,0.349-0.954,0.347-1.301,0C18.772,24.145,18.772,23.562,19.131,23.203z M36.073,11.691l3.337,3.337 l-2.687,2.688l1.414,1.414l2.687-2.688l1.302,1.302l-4.045,4.044l1.414,1.414l4.045-4.044l1.301,1.301l-4.044,4.045l1.414,1.414 l4.044-4.045l1.302,1.302l-2.688,2.687l1.414,1.414l2.688-2.687l3.337,3.337L38.788,41.447L22.553,25.212L36.073,11.691z M10.929,55.73c-0.359,0.358-0.942,0.359-1.302,0L8.27,54.373c-0.358-0.359-0.358-0.942,0-1.302l16.942-16.942l2.658,2.659 L10.929,55.73z M31.293,38.081c-0.359,0.357-0.942,0.359-1.302,0l-4.072-4.074c-0.174-0.173-0.27-0.403-0.27-0.649 c0-0.245,0.096-0.477,0.27-0.65l0.65-0.65l5.374,5.374L31.293,38.081z M55.73,29.935L40.797,44.869 c-0.361,0.359-0.944,0.357-1.302-0.001c-0.174-0.173-0.27-0.403-0.27-0.649c0-0.245,0.096-0.477,0.27-0.65L54.43,28.634 c0.18-0.179,0.415-0.269,0.65-0.269s0.471,0.09,0.65,0.269C56.089,28.993,56.089,29.576,55.73,29.935z" />
  <linearGradient id="mDG22KgpLu8B3E9PFVUZIb" x1="17.745" x2="17.745" y1="39.833" y2="53.051" gradientUnits="userSpaceOnUse" spreadMethod="reflect">
    <stop offset="0" stop-color="#6dc7ff" />
    <stop offset="1" stop-color="#e6abff" />
  </linearGradient>
  <path fill="url(#mDG22KgpLu8B3E9PFVUZIb)" d="M23.854 42.861L14.351 52.364 11.635 49.649 21.139 40.146z" />
</svg>