<?xml version="1.0" encoding="utf-8"?>
<svg xmlns="http://www.w3.org/2000/svg" viewBox="0 0 64 64" width="512" height="512">
  <linearGradient id="WVjpmwjCIM1B9EJQp0DQKa" x1="43" x2="43" y1="21.851" y2="29.724" gradientUnits="userSpaceOnUse">
    <stop offset="0" stop-color="#6dc7ff" />
    <stop offset="1" stop-color="#e6abff" />
  </linearGradient>
  <path fill="url(#WVjpmwjCIM1B9EJQp0DQKa)" d="M47,26c0,2.208-1.792,4-4,4s-4-1.792-4-4s1.792-4,4-4S47,23.792,47,26z" />
  <linearGradient id="WVjpmwjCIM1B9EJQp0DQKb" x1="25" x2="25" y1="11.277" y2="33.247" gradientUnits="userSpaceOnUse">
    <stop offset="0" stop-color="#6dc7ff" />
    <stop offset="1" stop-color="#e6abff" />
  </linearGradient>
  <path fill="url(#WVjpmwjCIM1B9EJQp0DQKb)" d="M21,16h11v-2h-6.002l-0.003-2L24,12.004L24.003,14H21c-1.654,0-3,1.346-3,3v4c0,1.654,1.346,3,3,3h8c0.551,0,1,0.449,1,1v4c0,0.551-0.449,1-1,1H18v2h6v2h2v-2h3c1.654,0,3-1.346,3-3v-4c0-0.446-0.098-0.869-0.273-1.25C31.252,22.718,30.208,22,29,22h-8c-0.551,0-1-0.449-1-1v-4C20,16.449,20.449,16,21,16z" />
  <linearGradient id="WVjpmwjCIM1B9EJQp0DQKc" x1="31.5" x2="31.5" y1="2.277" y2="56.31" gradientUnits="userSpaceOnUse">
    <stop offset="0" stop-color="#1a6dff" />
    <stop offset="1" stop-color="#c822ff" />
  </linearGradient>
  <path fill="url(#WVjpmwjCIM1B9EJQp0DQKc)" d="M54,16h-5v-5c0-2.757-2.243-5-5-5H14c-2.757,0-5,2.243-5,5v27H6v5c0,2.757,2.243,5,5,5h6v7.55c0,0.717,0.363,1.383,0.947,1.739c0.541,0.328,1.198,0.352,1.761,0.062l2.158-1.116l2.861,1.548c0.536,0.289,1.175,0.29,1.71,0l2.85-1.542l2.85,1.542c0.536,0.29,1.175,0.29,1.711,0l2.849-1.542l2.85,1.542C39.813,57.927,40.107,58,40.401,58c0.293,0,0.587-0.072,0.854-0.217l2.864-1.549l2.175,1.121c0.561,0.291,1.218,0.267,1.759-0.063C48.638,56.935,49,56.269,49,55.552V44h5.431C55.848,44,57,42.848,57,41.431V19C57,17.346,55.654,16,54,16z M55,28.08c-3.059,0.441-5.48,2.861-5.92,5.92H41V18h8.08c0.441,3.059,2.861,5.48,5.92,5.92V28.08z M55,19v2.899C53.044,21.5,51.5,19.956,51.101,18H54C54.551,18,55,18.449,55,19z M47,11v5h-6v-5c0-1.654,1.346-3,3-3S47,9.346,47,11z M11,11c0-1.654,1.346-3,3-3h26.026C39.391,8.838,39,9.87,39,11v32c0,1.654-1.346,3-3,3s-3-1.346-3-3v-5H11V11z M8,43v-3h23v3c0,1.13,0.391,2.162,1.026,3H11C9.346,46,8,44.654,8,43z M46.991,55.463l-2.053-1.058c-0.527-0.27-1.154-0.264-1.676,0.018l-2.862,1.547l-2.849-1.542c-0.536-0.29-1.176-0.29-1.711,0l-2.849,1.542l-2.85-1.542c-0.536-0.29-1.175-0.29-1.711,0l-2.85,1.542l-2.858-1.546c-0.524-0.284-1.153-0.29-1.681-0.016L19,55.465V48h17c2.414,0,4.434-1.721,4.899-4H47L46.991,55.463z M55,41.431C55,41.745,54.745,42,54.431,42H41v-2h14V41.431z M55,38H41v-2h14V38z M51.101,34c0.399-1.956,1.943-3.5,3.899-3.899V34H51.101z" />
</svg>