<?xml version="1.0" encoding="utf-8"?>
<svg xmlns="http://www.w3.org/2000/svg" viewBox="0 0 64 64" width="512" height="512">
  <linearGradient id="iEwZEX19suj1kjSL6a5lJa" x1="46" x2="46" y1="-161.792" y2="-214.443" gradientTransform="matrix(1 0 0 -1 0 -160)" gradientUnits="userSpaceOnUse" spreadMethod="reflect">
    <stop offset="0" stop-color="#1a6dff" />
    <stop offset="1" stop-color="#c822ff" />
  </linearGradient>
  <path fill="url(#iEwZEX19suj1kjSL6a5lJa)" d="M49 19L47 19 47 11 43 11 43 13 45 13 45 19 43 19 43 21 49 21z" />
  <linearGradient id="iEwZEX19suj1kjSL6a5lJb" x1="32.5" x2="32.5" y1="4" y2="53" gradientUnits="userSpaceOnUse" spreadMethod="reflect">
    <stop offset="0" stop-color="#1a6dff" />
    <stop offset="1" stop-color="#c822ff" />
  </linearGradient>
  <path fill="url(#iEwZEX19suj1kjSL6a5lJb)" d="M63,16c0-6.617-5.383-12-12-12h-5c-6.28,0-11.438,4.85-11.949,11H5c-1.65,0-3,1.35-3,3v32 c0,1.65,1.35,3,3,3h52c1.65,0,3-1.35,3-3V23.911C61.861,21.796,63,19.032,63,16z M46,28h5c1.038,0,2.039-0.146,3-0.395V42.08 c-2.51,0.43-4.49,2.41-4.92,4.92H12.92c-0.43-2.51-2.41-4.49-4.92-4.92V25.92c2.51-0.43,4.49-2.41,4.92-4.92h22.185 C37.006,25.124,41.169,28,46,28z M52.88,25.817c1.425-1.002,2.619-2.305,3.496-3.817h2.604 C57.514,23.945,55.362,25.342,52.88,25.817z M60.159,20H57.3c0.338-0.952,0.563-1.955,0.649-3h3 C60.844,18.058,60.569,19.065,60.159,20z M60.159,12c0.41,0.935,0.685,1.943,0.79,3h-3c-0.087-1.045-0.311-2.048-0.649-3H60.159z M58.981,10h-2.604c-0.878-1.512-2.071-2.815-3.496-3.817C55.362,6.658,57.514,8.055,58.981,10z M46,6c5.514,0,10,4.486,10,10 s-4.486,10-10,10s-10-4.486-10-10S40.486,6,46,6z M57,51H5c-0.55,0-1-0.45-1-1V18c0-0.55,0.45-1,1-1h29.051 c0.057,0.685,0.176,1.352,0.344,2H11v1c0,2.21-1.79,4-4,4H6v20h1c2.21,0,4,1.79,4,4v1h40v-1c0-2.21,1.79-4,4-4h1V26.895 c0.707-0.326,1.375-0.717,2-1.168V50C58,50.55,57.55,51,57,51z" />
  <linearGradient id="iEwZEX19suj1kjSL6a5lJc" x1="31" x2="31" y1="30" y2="38" gradientUnits="userSpaceOnUse" spreadMethod="reflect">
    <stop offset="0" stop-color="#6dc7ff" />
    <stop offset="1" stop-color="#e6abff" />
  </linearGradient>
  <path fill="url(#iEwZEX19suj1kjSL6a5lJc)" d="M31 30A4 4 0 1 0 31 38A4 4 0 1 0 31 30Z" />
  <linearGradient id="iEwZEX19suj1kjSL6a5lJd" x1="31" x2="31" y1="4.625" y2="52.504" gradientUnits="userSpaceOnUse" spreadMethod="reflect">
    <stop offset="0" stop-color="#1a6dff" />
    <stop offset="1" stop-color="#c822ff" />
  </linearGradient>
  <path fill="url(#iEwZEX19suj1kjSL6a5lJd)" d="M31,42c4.41,0,8-3.59,8-8c0-4.41-3.59-8-8-8s-8,3.59-8,8C23,38.41,26.59,42,31,42z M31,28 c3.31,0,6,2.69,6,6s-2.69,6-6,6s-6-2.69-6-6S27.69,28,31,28z" />
</svg>