<?xml version="1.0" encoding="utf-8"?>
<svg xmlns="http://www.w3.org/2000/svg" viewBox="0 0 64 64" width="512" height="512">
  <linearGradient id="9znUk84HsDJxAQyGXQ2Nma" x1="32" x2="32" y1="5.334" y2="58.459" gradientUnits="userSpaceOnUse" spreadMethod="reflect">
    <stop offset="0" stop-color="#1a6dff" />
    <stop offset="1" stop-color="#c822ff" />
  </linearGradient>
  <path fill="url(#9znUk84HsDJxAQyGXQ2Nma)" d="M56.427,38.816c-0.936-0.693-2.184-0.895-3.435-0.551l-15.288,4.226 C37.891,42.027,38,41.523,38,40.992C38,38.791,36.206,37,34,37h-9.377c-0.667-1-2.363-4-4.623-4h-4v-1c0-1.654-1.345-3-3-3H9 c-1.654,0-3,1.346-3,3v17c0,1.654,1.346,3,3,3h4c1.654,0,3-1.346,3-3v-0.752l12.14,8.202C29.664,57.482,31.436,58,33.214,58 c1.642,0,3.286-0.442,4.742-1.331l18.174-11.1c1.153-0.705,1.87-1.982,1.87-3.334v-0.312C58,40.691,57.427,39.558,56.427,38.816z M14,49c0,0.552-0.448,1-1,1h-1v-4h-2v4H9c-0.552,0-1-0.449-1-1V32c0-0.552,0.449-1,1-1h4c0.552,0,1,0.448,1,1V49z M56,42.235 c0,0.66-0.35,1.284-0.913,1.627l-18.174,11.1c-2.364,1.444-5.369,1.378-7.653-0.169L16,45.835V35h4c1.06,0,2.469,2.035,3.088,3.41 L23.354,39H34c1.103,0,2,0.893,2,1.991C36,42.099,35.102,43,34,43h-5h-5v2h5h5h2l17.524-4.807c0.639-0.177,1.279-0.091,1.711,0.229 C55.72,40.783,56,41.33,56,41.923V42.235z" />
  <linearGradient id="9znUk84HsDJxAQyGXQ2Nmb" x1="39" x2="39" y1="5.333" y2="58.46" gradientUnits="userSpaceOnUse" spreadMethod="reflect">
    <stop offset="0" stop-color="#1a6dff" />
    <stop offset="1" stop-color="#c822ff" />
  </linearGradient>
  <path fill="url(#9znUk84HsDJxAQyGXQ2Nmb)" d="M27,31h24c1.654,0,3-1.349,3-3.006V11.467c0-0.462-0.11-0.926-0.317-1.341l-1.236-2.47 C51.936,6.635,50.908,6,49.763,6H28.236c-1.145,0-2.331,0.635-2.842,1.655L24,10.125v0.001c0,0.414,0,0.878,0,1.341v16.527 C24,29.651,25.346,31,27,31z M51,29H27c-0.552,0-1-0.451-1-1.006V12h26v15.994C52,28.549,51.551,29,51,29z M28.236,8h21.527 c0.382,0,0.725,0.211,0.895,0.551L51.383,10H26.616l0.726-1.45C27.512,8.211,27.855,8,28.236,8z" />
  <linearGradient id="9znUk84HsDJxAQyGXQ2Nmc" x1="39" x2="39" y1="5.333" y2="58.46" gradientUnits="userSpaceOnUse" spreadMethod="reflect">
    <stop offset="0" stop-color="#1a6dff" />
    <stop offset="1" stop-color="#c822ff" />
  </linearGradient>
  <path fill="url(#9znUk84HsDJxAQyGXQ2Nmc)" d="M50,16c0-1.105-0.895-2-2-2H30c-1.105,0-2,0.895-2,2v2c0,1.105,0.895,2,2,2h18 c1.105,0,2-0.895,2-2V16z M48,18H30v-2h18V18z" />
  <linearGradient id="9znUk84HsDJxAQyGXQ2Nmd" x1="32" x2="32" y1="5.333" y2="58.46" gradientUnits="userSpaceOnUse" spreadMethod="reflect">
    <stop offset="0" stop-color="#1a6dff" />
    <stop offset="1" stop-color="#c822ff" />
  </linearGradient>
  <path fill="url(#9znUk84HsDJxAQyGXQ2Nmd)" d="M28 25H36V27H28z" />
  <linearGradient id="9znUk84HsDJxAQyGXQ2Nme" x1="46" x2="46" y1="5.333" y2="58.46" gradientUnits="userSpaceOnUse" spreadMethod="reflect">
    <stop offset="0" stop-color="#1a6dff" />
    <stop offset="1" stop-color="#c822ff" />
  </linearGradient>
  <path fill="url(#9znUk84HsDJxAQyGXQ2Nme)" d="M42 25H50V27H42z" />
  <linearGradient id="9znUk84HsDJxAQyGXQ2Nmf" x1="39" x2="39" y1="11" y2="23.667" gradientUnits="userSpaceOnUse" spreadMethod="reflect">
    <stop offset="0" stop-color="#6dc7ff" />
    <stop offset="1" stop-color="#e6abff" />
  </linearGradient>
  <path fill="url(#9znUk84HsDJxAQyGXQ2Nmf)" d="M30 16H48V18H30z" />
</svg>