<?xml version="1.0" encoding="utf-8"?>
<svg xmlns="http://www.w3.org/2000/svg" viewBox="0 0 64 64" width="512" height="512">
  <linearGradient id="DUBiMxxKExtbsOcj2cEHia" x1="11" x2="11" y1="-741.5" y2="-746.336" gradientTransform="matrix(1 0 0 -1 0 -690)" gradientUnits="userSpaceOnUse">
    <stop offset="0" stop-color="#6dc7ff" />
    <stop offset="1" stop-color="#e6abff" />
  </linearGradient>
  <path fill="url(#DUBiMxxKExtbsOcj2cEHia)" d="M10,52h2v4h-2V52z" />
  <linearGradient id="DUBiMxxKExtbsOcj2cEHib" x1="25" x2="25" y1="-733.333" y2="-747.168" gradientTransform="matrix(1 0 0 -1 0 -690)" gradientUnits="userSpaceOnUse">
    <stop offset="0" stop-color="#6dc7ff" />
    <stop offset="1" stop-color="#e6abff" />
  </linearGradient>
  <path fill="url(#DUBiMxxKExtbsOcj2cEHib)" d="M24,44h2v12h-2V44z" />
  <linearGradient id="DUBiMxxKExtbsOcj2cEHic" x1="39" x2="39" y1="-724.5" y2="-747.882" gradientTransform="matrix(1 0 0 -1 0 -690)" gradientUnits="userSpaceOnUse">
    <stop offset="0" stop-color="#6dc7ff" />
    <stop offset="1" stop-color="#e6abff" />
  </linearGradient>
  <path fill="url(#DUBiMxxKExtbsOcj2cEHic)" d="M38,36h2v20h-2V36z" />
  <linearGradient id="DUBiMxxKExtbsOcj2cEHid" x1="53" x2="53" y1="-717.333" y2="-747.196" gradientTransform="matrix(1 0 0 -1 0 -690)" gradientUnits="userSpaceOnUse">
    <stop offset="0" stop-color="#6dc7ff" />
    <stop offset="1" stop-color="#e6abff" />
  </linearGradient>
  <path fill="url(#DUBiMxxKExtbsOcj2cEHid)" d="M52,28h2v28h-2V28z" />
  <linearGradient id="DUBiMxxKExtbsOcj2cEHie" x1="11" x2="11" y1="5.809" y2="58.358" gradientUnits="userSpaceOnUse">
    <stop offset="0" stop-color="#1a6dff" />
    <stop offset="1" stop-color="#c822ff" />
  </linearGradient>
  <path fill="url(#DUBiMxxKExtbsOcj2cEHie)" d="M14,42H8c-1.105,0-2,0.895-2,2v12c0,1.105,0.895,2,2,2h6c1.105,0,2-0.895,2-2V44 C16,42.895,15.105,42,14,42z M14,56H8v-8h6V56z M14,46H8v-2h6V46z" />
  <linearGradient id="DUBiMxxKExtbsOcj2cEHif" x1="25" x2="25" y1="5.809" y2="58.358" gradientUnits="userSpaceOnUse">
    <stop offset="0" stop-color="#1a6dff" />
    <stop offset="1" stop-color="#c822ff" />
  </linearGradient>
  <path fill="url(#DUBiMxxKExtbsOcj2cEHif)" d="M28,34h-6c-1.103,0-2,0.899-2,2.001v4v2v14C20,57.104,20.897,58,22,58h6 c1.103,0,2-0.896,2-1.999v-14v-2v-4C30,34.899,29.102,34,28,34z M28,42.001V56h-6V42.001V40h6V42.001z M28,38h-6v-2h6V38z" />
  <linearGradient id="DUBiMxxKExtbsOcj2cEHig" x1="39" x2="39" y1="5.809" y2="58.358" gradientUnits="userSpaceOnUse">
    <stop offset="0" stop-color="#1a6dff" />
    <stop offset="1" stop-color="#c822ff" />
  </linearGradient>
  <path fill="url(#DUBiMxxKExtbsOcj2cEHig)" d="M42,26h-6c-1.103,0-2,0.899-2,2.001v4v2v22C34,57.104,34.897,58,36,58h6 c1.103,0,2-0.896,2-1.999v-22v-2v-4C44,26.899,43.102,26,42,26z M42,34.001V56h-6V34.001V32h6V34.001z M42,30h-6v-2h6V30z" />
  <linearGradient id="DUBiMxxKExtbsOcj2cEHih" x1="53" x2="53" y1="5.809" y2="58.358" gradientUnits="userSpaceOnUse">
    <stop offset="0" stop-color="#1a6dff" />
    <stop offset="1" stop-color="#c822ff" />
  </linearGradient>
  <path fill="url(#DUBiMxxKExtbsOcj2cEHih)" d="M56,18h-6c-1.103,0-2,0.899-2,2.001v4v2v30C48,57.104,48.897,58,50,58h6 c1.103,0,2-0.896,2-1.999v-30v-2v-4C58,18.899,57.102,18,56,18z M56,26.001V56h-6V26.001V24h6V26.001z M56,22h-6v-2h6V22z" />
  <linearGradient id="DUBiMxxKExtbsOcj2cEHii" x1="35.002" x2="35.002" y1="5.809" y2="58.358" gradientUnits="userSpaceOnUse">
    <stop offset="0" stop-color="#1a6dff" />
    <stop offset="1" stop-color="#c822ff" />
  </linearGradient>
  <path fill="url(#DUBiMxxKExtbsOcj2cEHii)" d="M51.182,6.969c-0.384-0.666-1.121-1.044-1.908-0.958l-6.422,0.605 c-0.534,0.051-1,0.365-1.245,0.841c-0.233,0.453-0.224,0.981,0.027,1.413l0.965,1.668L18.565,24.247l1,1.731l24.036-13.709 l1.158,2.001c0.25,0.433,0.703,0.705,1.212,0.729c0.025,0.001,0.05,0.002,0.075,0.002c0.506,0,0.978-0.242,1.273-0.658l3.737-5.246 C51.517,8.448,51.566,7.633,51.182,6.969z M46.104,12.602L43.75,8.533l5.678-0.597L46.104,12.602z" />
  <linearGradient id="DUBiMxxKExtbsOcj2cEHij" x1="11" x2="11" y1="5.809" y2="58.358" gradientUnits="userSpaceOnUse">
    <stop offset="0" stop-color="#1a6dff" />
    <stop offset="1" stop-color="#c822ff" />
  </linearGradient>
  <path fill="url(#DUBiMxxKExtbsOcj2cEHij)" d="M10,34h2v-2h1c1.103,0,2-0.897,2-2v-2c0-1.103-0.897-2-2-2H9v-2h6v-2h-3v-2h-2v2H9 c-1.103,0-2,0.897-2,2v2c0,1.103,0.897,2,2,2h4v2H7v2h3V34z" />
</svg>